<mxfile host="65bd71144e">
    <diagram id="PfUdE1S0aLGUqNLySImJ" name="第 1 页">
        <mxGraphModel dx="2462" dy="1139" grid="1" gridSize="10" guides="1" tooltips="1" connect="1" arrows="1" fold="1" page="1" pageScale="1" pageWidth="827" pageHeight="1169" math="0" shadow="0">
            <root>
                <mxCell id="0"/>
                <mxCell id="1" parent="0"/>
                <mxCell id="53" value="" style="rounded=0;whiteSpace=wrap;html=1;strokeWidth=2;dashed=1;" parent="1" vertex="1">
                    <mxGeometry x="220" y="550" width="210" height="140" as="geometry"/>
                </mxCell>
                <mxCell id="52" value="" style="rounded=0;whiteSpace=wrap;html=1;strokeWidth=2;dashed=1;" parent="1" vertex="1">
                    <mxGeometry x="220" y="340" width="210" height="200" as="geometry"/>
                </mxCell>
                <mxCell id="40" value="" style="rounded=0;whiteSpace=wrap;html=1;strokeWidth=2;dashed=1;" parent="1" vertex="1">
                    <mxGeometry x="450" y="380" width="210" height="270" as="geometry"/>
                </mxCell>
                <mxCell id="2" value="" style="shape=table;startSize=0;container=1;collapsible=0;childLayout=tableLayout;fontSize=16;rowLines=0;columnLines=1;strokeWidth=2;fillColor=#FFFFCC;" parent="1" vertex="1">
                    <mxGeometry x="290" y="470" width="120" height="60" as="geometry"/>
                </mxCell>
                <mxCell id="3" value="" style="shape=tableRow;horizontal=0;startSize=0;swimlaneHead=0;swimlaneBody=0;strokeColor=inherit;top=0;left=0;bottom=0;right=0;collapsible=0;dropTarget=0;fillColor=none;points=[[0,0.5],[1,0.5]];portConstraint=eastwest;fontSize=16;" parent="2" vertex="1">
                    <mxGeometry width="120" height="60" as="geometry"/>
                </mxCell>
                <mxCell id="4" value="" style="shape=partialRectangle;html=1;whiteSpace=wrap;connectable=0;strokeColor=inherit;overflow=hidden;fillColor=none;top=0;left=0;bottom=0;right=0;pointerEvents=1;fontSize=16;" parent="3" vertex="1">
                    <mxGeometry width="24" height="60" as="geometry">
                        <mxRectangle width="24" height="60" as="alternateBounds"/>
                    </mxGeometry>
                </mxCell>
                <mxCell id="5" value="" style="shape=partialRectangle;html=1;whiteSpace=wrap;connectable=0;strokeColor=inherit;overflow=hidden;fillColor=none;top=0;left=0;bottom=0;right=0;pointerEvents=1;fontSize=16;" parent="3" vertex="1">
                    <mxGeometry x="24" width="24" height="60" as="geometry">
                        <mxRectangle width="24" height="60" as="alternateBounds"/>
                    </mxGeometry>
                </mxCell>
                <mxCell id="6" value="" style="shape=partialRectangle;html=1;whiteSpace=wrap;connectable=0;strokeColor=inherit;overflow=hidden;fillColor=none;top=0;left=0;bottom=0;right=0;pointerEvents=1;fontSize=16;" parent="3" vertex="1">
                    <mxGeometry x="48" width="24" height="60" as="geometry">
                        <mxRectangle width="24" height="60" as="alternateBounds"/>
                    </mxGeometry>
                </mxCell>
                <mxCell id="7" style="shape=partialRectangle;html=1;whiteSpace=wrap;connectable=0;strokeColor=inherit;overflow=hidden;fillColor=none;top=0;left=0;bottom=0;right=0;pointerEvents=1;fontSize=16;" parent="3" vertex="1">
                    <mxGeometry x="72" width="24" height="60" as="geometry">
                        <mxRectangle width="24" height="60" as="alternateBounds"/>
                    </mxGeometry>
                </mxCell>
                <mxCell id="8" style="shape=partialRectangle;html=1;whiteSpace=wrap;connectable=0;strokeColor=inherit;overflow=hidden;fillColor=none;top=0;left=0;bottom=0;right=0;pointerEvents=1;fontSize=16;" parent="3" vertex="1">
                    <mxGeometry x="96" width="24" height="60" as="geometry">
                        <mxRectangle width="24" height="60" as="alternateBounds"/>
                    </mxGeometry>
                </mxCell>
                <mxCell id="9" value="" style="shape=table;startSize=0;container=1;collapsible=0;childLayout=tableLayout;fontSize=16;rowLines=0;columnLines=1;strokeWidth=2;fillColor=#FFE6CC;" parent="1" vertex="1">
                    <mxGeometry x="490" y="470" width="120" height="60" as="geometry"/>
                </mxCell>
                <mxCell id="10" value="" style="shape=tableRow;horizontal=0;startSize=0;swimlaneHead=0;swimlaneBody=0;strokeColor=inherit;top=0;left=0;bottom=0;right=0;collapsible=0;dropTarget=0;fillColor=none;points=[[0,0.5],[1,0.5]];portConstraint=eastwest;fontSize=16;" parent="9" vertex="1">
                    <mxGeometry width="120" height="60" as="geometry"/>
                </mxCell>
                <mxCell id="11" value="" style="shape=partialRectangle;html=1;whiteSpace=wrap;connectable=0;strokeColor=inherit;overflow=hidden;fillColor=none;top=0;left=0;bottom=0;right=0;pointerEvents=1;fontSize=16;" parent="10" vertex="1">
                    <mxGeometry width="24" height="60" as="geometry">
                        <mxRectangle width="24" height="60" as="alternateBounds"/>
                    </mxGeometry>
                </mxCell>
                <mxCell id="12" value="" style="shape=partialRectangle;html=1;whiteSpace=wrap;connectable=0;strokeColor=inherit;overflow=hidden;fillColor=none;top=0;left=0;bottom=0;right=0;pointerEvents=1;fontSize=16;" parent="10" vertex="1">
                    <mxGeometry x="24" width="24" height="60" as="geometry">
                        <mxRectangle width="24" height="60" as="alternateBounds"/>
                    </mxGeometry>
                </mxCell>
                <mxCell id="13" value="" style="shape=partialRectangle;html=1;whiteSpace=wrap;connectable=0;strokeColor=inherit;overflow=hidden;fillColor=none;top=0;left=0;bottom=0;right=0;pointerEvents=1;fontSize=16;" parent="10" vertex="1">
                    <mxGeometry x="48" width="24" height="60" as="geometry">
                        <mxRectangle width="24" height="60" as="alternateBounds"/>
                    </mxGeometry>
                </mxCell>
                <mxCell id="14" style="shape=partialRectangle;html=1;whiteSpace=wrap;connectable=0;strokeColor=inherit;overflow=hidden;fillColor=none;top=0;left=0;bottom=0;right=0;pointerEvents=1;fontSize=16;" parent="10" vertex="1">
                    <mxGeometry x="72" width="24" height="60" as="geometry">
                        <mxRectangle width="24" height="60" as="alternateBounds"/>
                    </mxGeometry>
                </mxCell>
                <mxCell id="15" style="shape=partialRectangle;html=1;whiteSpace=wrap;connectable=0;strokeColor=inherit;overflow=hidden;fillColor=none;top=0;left=0;bottom=0;right=0;pointerEvents=1;fontSize=16;" parent="10" vertex="1">
                    <mxGeometry x="96" width="24" height="60" as="geometry">
                        <mxRectangle width="24" height="60" as="alternateBounds"/>
                    </mxGeometry>
                </mxCell>
                <mxCell id="16" value="" style="shape=table;startSize=0;container=1;collapsible=0;childLayout=tableLayout;fontSize=16;rowLines=0;columnLines=1;strokeWidth=2;fillColor=#FFFFCC;" parent="1" vertex="1">
                    <mxGeometry x="290" y="555" width="120" height="60" as="geometry"/>
                </mxCell>
                <mxCell id="17" value="" style="shape=tableRow;horizontal=0;startSize=0;swimlaneHead=0;swimlaneBody=0;strokeColor=inherit;top=0;left=0;bottom=0;right=0;collapsible=0;dropTarget=0;fillColor=none;points=[[0,0.5],[1,0.5]];portConstraint=eastwest;fontSize=16;" parent="16" vertex="1">
                    <mxGeometry width="120" height="60" as="geometry"/>
                </mxCell>
                <mxCell id="18" value="" style="shape=partialRectangle;html=1;whiteSpace=wrap;connectable=0;strokeColor=inherit;overflow=hidden;fillColor=none;top=0;left=0;bottom=0;right=0;pointerEvents=1;fontSize=16;" parent="17" vertex="1">
                    <mxGeometry width="24" height="60" as="geometry">
                        <mxRectangle width="24" height="60" as="alternateBounds"/>
                    </mxGeometry>
                </mxCell>
                <mxCell id="19" value="" style="shape=partialRectangle;html=1;whiteSpace=wrap;connectable=0;strokeColor=inherit;overflow=hidden;fillColor=none;top=0;left=0;bottom=0;right=0;pointerEvents=1;fontSize=16;" parent="17" vertex="1">
                    <mxGeometry x="24" width="24" height="60" as="geometry">
                        <mxRectangle width="24" height="60" as="alternateBounds"/>
                    </mxGeometry>
                </mxCell>
                <mxCell id="20" value="" style="shape=partialRectangle;html=1;whiteSpace=wrap;connectable=0;strokeColor=inherit;overflow=hidden;fillColor=none;top=0;left=0;bottom=0;right=0;pointerEvents=1;fontSize=16;" parent="17" vertex="1">
                    <mxGeometry x="48" width="24" height="60" as="geometry">
                        <mxRectangle width="24" height="60" as="alternateBounds"/>
                    </mxGeometry>
                </mxCell>
                <mxCell id="21" style="shape=partialRectangle;html=1;whiteSpace=wrap;connectable=0;strokeColor=inherit;overflow=hidden;fillColor=none;top=0;left=0;bottom=0;right=0;pointerEvents=1;fontSize=16;" parent="17" vertex="1">
                    <mxGeometry x="72" width="24" height="60" as="geometry">
                        <mxRectangle width="24" height="60" as="alternateBounds"/>
                    </mxGeometry>
                </mxCell>
                <mxCell id="22" style="shape=partialRectangle;html=1;whiteSpace=wrap;connectable=0;strokeColor=inherit;overflow=hidden;fillColor=none;top=0;left=0;bottom=0;right=0;pointerEvents=1;fontSize=16;" parent="17" vertex="1">
                    <mxGeometry x="96" width="24" height="60" as="geometry">
                        <mxRectangle width="24" height="60" as="alternateBounds"/>
                    </mxGeometry>
                </mxCell>
                <mxCell id="30" value="" style="shape=table;startSize=0;container=1;collapsible=0;childLayout=tableLayout;fontSize=16;rowLines=0;columnLines=1;strokeWidth=2;fillColor=#FFE6CC;" parent="1" vertex="1">
                    <mxGeometry x="490" y="555" width="120" height="60" as="geometry"/>
                </mxCell>
                <mxCell id="31" value="" style="shape=tableRow;horizontal=0;startSize=0;swimlaneHead=0;swimlaneBody=0;strokeColor=inherit;top=0;left=0;bottom=0;right=0;collapsible=0;dropTarget=0;fillColor=none;points=[[0,0.5],[1,0.5]];portConstraint=eastwest;fontSize=16;" parent="30" vertex="1">
                    <mxGeometry width="120" height="60" as="geometry"/>
                </mxCell>
                <mxCell id="32" value="" style="shape=partialRectangle;html=1;whiteSpace=wrap;connectable=0;strokeColor=inherit;overflow=hidden;fillColor=none;top=0;left=0;bottom=0;right=0;pointerEvents=1;fontSize=16;" parent="31" vertex="1">
                    <mxGeometry width="24" height="60" as="geometry">
                        <mxRectangle width="24" height="60" as="alternateBounds"/>
                    </mxGeometry>
                </mxCell>
                <mxCell id="33" value="" style="shape=partialRectangle;html=1;whiteSpace=wrap;connectable=0;strokeColor=inherit;overflow=hidden;fillColor=none;top=0;left=0;bottom=0;right=0;pointerEvents=1;fontSize=16;" parent="31" vertex="1">
                    <mxGeometry x="24" width="24" height="60" as="geometry">
                        <mxRectangle width="24" height="60" as="alternateBounds"/>
                    </mxGeometry>
                </mxCell>
                <mxCell id="34" value="" style="shape=partialRectangle;html=1;whiteSpace=wrap;connectable=0;strokeColor=inherit;overflow=hidden;fillColor=none;top=0;left=0;bottom=0;right=0;pointerEvents=1;fontSize=16;" parent="31" vertex="1">
                    <mxGeometry x="48" width="24" height="60" as="geometry">
                        <mxRectangle width="24" height="60" as="alternateBounds"/>
                    </mxGeometry>
                </mxCell>
                <mxCell id="35" style="shape=partialRectangle;html=1;whiteSpace=wrap;connectable=0;strokeColor=inherit;overflow=hidden;fillColor=none;top=0;left=0;bottom=0;right=0;pointerEvents=1;fontSize=16;" parent="31" vertex="1">
                    <mxGeometry x="72" width="24" height="60" as="geometry">
                        <mxRectangle width="24" height="60" as="alternateBounds"/>
                    </mxGeometry>
                </mxCell>
                <mxCell id="36" style="shape=partialRectangle;html=1;whiteSpace=wrap;connectable=0;strokeColor=inherit;overflow=hidden;fillColor=none;top=0;left=0;bottom=0;right=0;pointerEvents=1;fontSize=16;" parent="31" vertex="1">
                    <mxGeometry x="96" width="24" height="60" as="geometry">
                        <mxRectangle width="24" height="60" as="alternateBounds"/>
                    </mxGeometry>
                </mxCell>
                <mxCell id="39" value="Buffer Page" style="shape=callout;whiteSpace=wrap;html=1;perimeter=calloutPerimeter;strokeWidth=2;fillStyle=auto;fillColor=#FDFFF4;fontStyle=2" parent="1" vertex="1">
                    <mxGeometry x="260" y="400" width="80" height="60" as="geometry"/>
                </mxCell>
                <mxCell id="49" value="Tracing Service" style="rounded=0;whiteSpace=wrap;html=1;strokeWidth=2;fillColor=#FFCC99;fontStyle=1;fontSize=14;" parent="1" vertex="1">
                    <mxGeometry x="450" y="380" width="210" height="60" as="geometry"/>
                </mxCell>
                <mxCell id="50" style="edgeStyle=none;html=1;exitX=1;exitY=0.5;exitDx=0;exitDy=0;entryX=0;entryY=0.5;entryDx=0;entryDy=0;strokeWidth=2;flowAnimation=1;" parent="1" source="3" target="9" edge="1">
                    <mxGeometry relative="1" as="geometry"/>
                </mxCell>
                <mxCell id="51" style="edgeStyle=none;html=1;exitX=1;exitY=0.5;exitDx=0;exitDy=0;entryX=0;entryY=0.5;entryDx=0;entryDy=0;strokeWidth=2;flowAnimation=1;" parent="1" source="17" target="30" edge="1">
                    <mxGeometry relative="1" as="geometry"/>
                </mxCell>
                <mxCell id="54" value="SHMEM" style="rounded=0;whiteSpace=wrap;html=1;strokeWidth=2;fillColor=#E5CCFF;fontStyle=1;fontSize=14;shadow=0;glass=0;" parent="1" vertex="1">
                    <mxGeometry x="220" y="330" width="210" height="60" as="geometry"/>
                </mxCell>
                <mxCell id="55" value="SHMEM" style="rounded=0;whiteSpace=wrap;html=1;strokeWidth=2;fillColor=#E5CCFF;fontStyle=1;fontSize=14;" parent="1" vertex="1">
                    <mxGeometry x="220" y="630" width="210" height="60" as="geometry"/>
                </mxCell>
                <mxCell id="57" value="Buf 1" style="text;html=1;align=center;verticalAlign=middle;whiteSpace=wrap;rounded=0;fontStyle=2" parent="1" vertex="1">
                    <mxGeometry x="230" y="570" width="60" height="30" as="geometry"/>
                </mxCell>
                <mxCell id="58" value="Buf 0" style="text;html=1;align=center;verticalAlign=middle;whiteSpace=wrap;rounded=0;fontStyle=2" parent="1" vertex="1">
                    <mxGeometry x="610" y="485" width="60" height="30" as="geometry"/>
                </mxCell>
                <mxCell id="59" value="Buf 1" style="text;html=1;align=center;verticalAlign=middle;whiteSpace=wrap;rounded=0;fontStyle=2" parent="1" vertex="1">
                    <mxGeometry x="610" y="570" width="60" height="30" as="geometry"/>
                </mxCell>
                <mxCell id="60" value="数据源1" style="rounded=1;whiteSpace=wrap;html=1;strokeWidth=2;fillColor=#FAFFF2;" parent="1" vertex="1">
                    <mxGeometry x="-40" y="420" width="200" height="40" as="geometry"/>
                </mxCell>
                <mxCell id="61" value="采集进程1" style="rounded=1;whiteSpace=wrap;html=1;strokeWidth=2;fillColor=#d5e8d4;strokeColor=light-dark(#000000, #446e2c);" parent="1" vertex="1">
                    <mxGeometry x="-40" y="380" width="200" height="40" as="geometry"/>
                </mxCell>
                <mxCell id="62" value="数据源2" style="rounded=1;whiteSpace=wrap;html=1;strokeWidth=2;fillColor=#FAFFF2;" parent="1" vertex="1">
                    <mxGeometry x="-40" y="460" width="200" height="40" as="geometry"/>
                </mxCell>
                <mxCell id="56" value="Buf 0" style="text;html=1;align=center;verticalAlign=middle;whiteSpace=wrap;rounded=0;fontStyle=2" parent="1" vertex="1">
                    <mxGeometry x="220" y="485" width="60" height="30" as="geometry"/>
                </mxCell>
                <mxCell id="66" value="" style="curved=1;endArrow=classic;html=1;exitX=1;exitY=0.5;exitDx=0;exitDy=0;entryX=0;entryY=0.5;entryDx=0;entryDy=0;strokeWidth=2;flowAnimation=1;" parent="1" source="60" target="2" edge="1">
                    <mxGeometry width="50" height="50" relative="1" as="geometry">
                        <mxPoint x="190" y="620" as="sourcePoint"/>
                        <mxPoint x="240" y="570" as="targetPoint"/>
                        <Array as="points">
                            <mxPoint x="210" y="440"/>
                            <mxPoint x="260" y="470"/>
                        </Array>
                    </mxGeometry>
                </mxCell>
                <mxCell id="68" value="" style="curved=1;endArrow=classic;html=1;exitX=1;exitY=0.5;exitDx=0;exitDy=0;entryX=0;entryY=0.5;entryDx=0;entryDy=0;strokeWidth=2;flowAnimation=1;" parent="1" source="62" target="3" edge="1">
                    <mxGeometry width="50" height="50" relative="1" as="geometry">
                        <mxPoint x="170" y="480" as="sourcePoint"/>
                        <mxPoint x="300" y="510" as="targetPoint"/>
                        <Array as="points">
                            <mxPoint x="220" y="470"/>
                        </Array>
                    </mxGeometry>
                </mxCell>
                <mxCell id="69" value="..." style="rounded=1;whiteSpace=wrap;html=1;strokeWidth=2;fillColor=#FAFFF2;" parent="1" vertex="1">
                    <mxGeometry x="-40" y="500" width="200" height="40" as="geometry"/>
                </mxCell>
                <mxCell id="71" value="" style="curved=1;endArrow=classic;html=1;exitX=1;exitY=0.5;exitDx=0;exitDy=0;entryX=0;entryY=0.5;entryDx=0;entryDy=0;strokeWidth=2;flowAnimation=1;" parent="1" source="69" target="3" edge="1">
                    <mxGeometry width="50" height="50" relative="1" as="geometry">
                        <mxPoint x="170" y="490" as="sourcePoint"/>
                        <mxPoint x="300" y="510" as="targetPoint"/>
                        <Array as="points">
                            <mxPoint x="230" y="480"/>
                        </Array>
                    </mxGeometry>
                </mxCell>
                <mxCell id="73" value="..." style="rounded=1;whiteSpace=wrap;html=1;strokeWidth=2;fillColor=#FAFFF2;" parent="1" vertex="1">
                    <mxGeometry x="-40" y="595" width="200" height="40" as="geometry"/>
                </mxCell>
                <mxCell id="81" style="edgeStyle=none;html=1;exitX=0.5;exitY=1;exitDx=0;exitDy=0;entryX=0.5;entryY=1;entryDx=0;entryDy=0;strokeWidth=1;shape=flexArrow;strokeColor=none;fillColor=#E6E6E6;" parent="1" source="74" target="40" edge="1">
                    <mxGeometry relative="1" as="geometry">
                        <Array as="points">
                            <mxPoint x="60" y="800"/>
                            <mxPoint x="555" y="800"/>
                        </Array>
                    </mxGeometry>
                </mxCell>
                <mxCell id="74" value="采集进程2" style="rounded=1;whiteSpace=wrap;html=1;strokeWidth=2;fillColor=#d5e8d4;strokeColor=light-dark(#000000, #446e2c);" parent="1" vertex="1">
                    <mxGeometry x="-40" y="715" width="200" height="40" as="geometry"/>
                </mxCell>
                <mxCell id="75" value="数据源2" style="rounded=1;whiteSpace=wrap;html=1;strokeWidth=2;fillColor=#FAFFF2;" parent="1" vertex="1">
                    <mxGeometry x="-40" y="635" width="200" height="40" as="geometry"/>
                </mxCell>
                <mxCell id="76" value="" style="curved=1;endArrow=classic;html=1;exitX=1;exitY=0.5;exitDx=0;exitDy=0;entryX=0;entryY=0.5;entryDx=0;entryDy=0;strokeWidth=2;flowAnimation=1;" parent="1" source="73" target="17" edge="1">
                    <mxGeometry width="50" height="50" relative="1" as="geometry">
                        <mxPoint x="190" y="795" as="sourcePoint"/>
                        <mxPoint x="290" y="675" as="targetPoint"/>
                        <Array as="points">
                            <mxPoint x="220" y="610"/>
                            <mxPoint x="270" y="600"/>
                        </Array>
                    </mxGeometry>
                </mxCell>
                <mxCell id="77" value="" style="curved=1;endArrow=classic;html=1;exitX=1;exitY=0.5;exitDx=0;exitDy=0;entryX=0;entryY=0.5;entryDx=0;entryDy=0;strokeWidth=2;flowAnimation=1;" parent="1" source="75" target="17" edge="1">
                    <mxGeometry width="50" height="50" relative="1" as="geometry">
                        <mxPoint x="170" y="655" as="sourcePoint"/>
                        <mxPoint x="290" y="675" as="targetPoint"/>
                        <Array as="points">
                            <mxPoint x="220" y="645"/>
                        </Array>
                    </mxGeometry>
                </mxCell>
                <mxCell id="78" value="&lt;span style=&quot;color: rgb(0, 0, 0);&quot;&gt;数据源1&lt;/span&gt;" style="rounded=1;whiteSpace=wrap;html=1;strokeWidth=2;fillColor=#FAFFF2;" parent="1" vertex="1">
                    <mxGeometry x="-40" y="675" width="200" height="40" as="geometry"/>
                </mxCell>
                <mxCell id="79" value="" style="curved=1;endArrow=classic;html=1;exitX=1;exitY=0.5;exitDx=0;exitDy=0;entryX=1;entryY=0.5;entryDx=0;entryDy=0;strokeWidth=2;flowAnimation=1;" parent="1" source="78" target="57" edge="1">
                    <mxGeometry width="50" height="50" relative="1" as="geometry">
                        <mxPoint x="170" y="665" as="sourcePoint"/>
                        <mxPoint x="290" y="675" as="targetPoint"/>
                        <Array as="points">
                            <mxPoint x="230" y="655"/>
                        </Array>
                    </mxGeometry>
                </mxCell>
                <mxCell id="82" style="edgeStyle=none;html=1;entryX=0.5;entryY=0;entryDx=0;entryDy=0;strokeWidth=1;shape=flexArrow;strokeColor=none;fillColor=#E6E6E6;" parent="1" target="49" edge="1">
                    <mxGeometry relative="1" as="geometry">
                        <mxPoint x="53" y="380" as="sourcePoint"/>
                        <mxPoint x="547.5" y="120" as="targetPoint"/>
                        <Array as="points">
                            <mxPoint x="52.5" y="270"/>
                            <mxPoint x="555" y="270"/>
                        </Array>
                    </mxGeometry>
                </mxCell>
                <mxCell id="84" value="IPC" style="text;html=1;align=center;verticalAlign=middle;whiteSpace=wrap;rounded=0;" parent="1" vertex="1">
                    <mxGeometry x="278" y="230" width="60" height="30" as="geometry"/>
                </mxCell>
                <mxCell id="85" value="IPC" style="text;html=1;align=center;verticalAlign=middle;whiteSpace=wrap;rounded=0;" parent="1" vertex="1">
                    <mxGeometry x="270" y="770" width="60" height="30" as="geometry"/>
                </mxCell>
            </root>
        </mxGraphModel>
    </diagram>
</mxfile>